HIERARCHY
ROOT Hips
{
	OFFSET 0.00000 0.00000 0.00000
	CHANNELS 6 Xposition Yposition Zposition Zrotation Yrotation Xrotation 
	JOINT LHipJoint
	{
		OFFSET 0 0 0
		CHANNELS 3 Zrotation Yrotation Xrotation
		JOINT LeftHip
		{
			OFFSET 1.17584 -1.63585 1.00361
			CHANNELS 3 Zrotation Yrotation Xrotation
			JOINT LeftKnee
			{
				OFFSET 2.23889 -6.15131 0.00000
				CHANNELS 3 Zrotation Yrotation Xrotation
				JOINT LeftAnkle
				{
					OFFSET 2.65161 -7.28525 0.00000
					CHANNELS 3 Zrotation Yrotation Xrotation
					JOINT LeftToe
					{
						OFFSET 0.24898 -0.68407 1.57235
						CHANNELS 3 Zrotation Yrotation Xrotation
						End Site
						{
							OFFSET 0.00000 -0.00000 0.85838
						}
					}
				}
			}
		}
	}
	JOINT RHipJoint
	{
		OFFSET 0 0 0
		CHANNELS 3 Zrotation Yrotation Xrotation
		JOINT RightHip
		{
			OFFSET -1.15592 -1.63585 1.00361
			CHANNELS 3 Zrotation Yrotation Xrotation
			JOINT RightKnee
			{
				OFFSET -2.34071 -6.43104 0.00000
				CHANNELS 3 Zrotation Yrotation Xrotation
				JOINT RightAnkle
				{
					OFFSET -2.59113 -7.11908 0.00000
					CHANNELS 3 Zrotation Yrotation Xrotation
					JOINT RightToe
					{
						OFFSET -0.17867 -0.49089 1.70981
						CHANNELS 3 Zrotation Yrotation Xrotation
						End Site
						{
							OFFSET -0.00000 -0.00000 0.89861
						}
					}
				}
			}
		}
	}
	JOINT lowerback
	{
		OFFSET 0 0 0
		CHANNELS 3 Zrotation Yrotation Xrotation
		JOINT Chest
		{
			OFFSET -0.02255 1.90764 -0.16605
			CHANNELS 3 Zrotation Yrotation Xrotation
			JOINT Chest2
			{
				OFFSET -0.00365 1.92150 -0.04898
				CHANNELS 3 Zrotation Yrotation Xrotation
				JOINT lowerneck
				{
					OFFSET 0 0 0
					CHANNELS 3 Zrotation Yrotation Xrotation
					JOINT Neck
					{
						OFFSET 0.00372 1.59170 0.08694
						CHANNELS 3 Zrotation Yrotation Xrotation
						JOINT Head
						{
							OFFSET 0.12558 1.58643 -0.08078
							CHANNELS 3 Zrotation Yrotation Xrotation
							End Site
							{
								OFFSET 0.04211 1.60835 -0.03803
							}
						}
					}
				}
				JOINT LeftCollar
				{
					OFFSET 0 0 0
					CHANNELS 3 Zrotation Yrotation Xrotation
					JOINT LeftShoulder
					{
						OFFSET 3.69324 0.96316 0.19077
CHANNELS 3 Zrotation Xrotation Yrotation
						JOINT LeftElbow
						{
OFFSET 0 -4.877960 -0.000000
CHANNELS 3 Zrotation Xrotation Yrotation
							JOINT LeftWrist
							{
OFFSET 0 -3.231690 0.000000
CHANNELS 3 Zrotation Xrotation Yrotation
								JOINT lhand
								{
									OFFSET 0 0 0
CHANNELS 3 Zrotation Xrotation Yrotation
									JOINT LFingers
									{
OFFSET 0 -0.731320 0.000000
CHANNELS 3 Zrotation Xrotation Yrotation
										End Site
										{
OFFSET 0 -0.589610 0.000000
										}
									}
								}
								JOINT LThumb
								{
OFFSET 0 0.000000 0.000000
CHANNELS 3 Zrotation Xrotation Yrotation
									End Site
									{
OFFSET 0 -0.598610 0.598610
									}
								}
							}
						}
					}
				}
				JOINT RightCollar
				{
					OFFSET 0 0 0
					CHANNELS 3 Zrotation Yrotation Xrotation
					JOINT RightShoulder
					{
						OFFSET -3.66103 0.75145 0.08281
CHANNELS 3 Zrotation Xrotation Yrotation
						JOINT RightElbow
						{
OFFSET 0 -4.914300 0.000000
CHANNELS 3 Zrotation Xrotation Yrotation
							JOINT RightWrist
							{
OFFSET 0 -3.290930 0.000000
CHANNELS 3 Zrotation Xrotation Yrotation
								JOINT rhand
								{
									OFFSET 0 0 0
CHANNELS 3 Zrotation Xrotation Yrotation
									JOINT RFingers
									{
OFFSET 0 -0.545120 0.000000
CHANNELS 3 Zrotation Xrotation Yrotation
										End Site
										{
OFFSET 0 -0.439490 0.000000
										}
									}
								}
								JOINT RThumb
								{
OFFSET 0 0.000000 0.000000
CHANNELS 3 Zrotation Xrotation Yrotation
									End Site
									{
OFFSET 0 -0.446200 0.446200
									}
								}
							}
						}
					}
				}
			}
		}
	}
}
MOTION
Frames: 4
Frame Time: 0.008333333333333333
17.976900 16.329800 0.109000 28.704100 -86.943200 -26.604300 0.000000 0.000000 0.000000 -10.507100 -3.330900 -11.435300 2.659300 10.122000 29.372600 1.823100 13.483400 -33.371400 2.118800 -9.109200 -26.137700 0.000000 0.000000 0.000000 9.481900 7.141200 -10.624300 -3.308500 -11.178500 32.884300 -1.645200 -13.213100 -32.099300 -0.251300 3.225400 -8.906900 -2.557000 -1.742500 -8.931400 0.545400 -2.071200 3.536800 1.674600 -1.173700 8.894900 -5.888400 1.764800 -3.085800 2.632300 1.695600 25.064600 1.971700 0.183300 8.164500 0.000000 -0.000000 0.000000 -0.438400 -1.662300 -22.489500 40.169500 -48.170000 18.565400 41.500400 -11.698800 28.949400 0.000000 0.000000 0.000000 -7.125000 0.000000 0.000000 6.083800 -6.285600 6.749600 0.000000 -0.000000 0.000000 -6.863600 0.772600 42.592900 -40.406400 -48.308800 -18.742100 -20.050900 -4.243800 38.639700 0.000000 0.000000 0.000000 7.125000 0.000000 -0.000000 21.650700 69.255200 -12.791400
17.981299 16.330642 0.109475 29.084060 -86.981634 -27.029029 0.000000 0.000000 0.000000 -10.498461 -3.285683 -11.372024 2.654509 10.113543 29.345304 1.855596 13.284968 -33.403029 2.005616 -8.877831 -25.413819 0.000000 0.000000 0.000000 9.461925 7.044947 -10.620462 -3.304575 -11.172492 32.863910 -1.629804 -13.136721 -31.943649 -0.242300 3.167507 -8.745475 -2.706081 -1.714016 -9.149994 0.627215 -2.015961 3.701274 1.846824 -1.163774 9.209305 -5.978137 1.650067 -3.222916 2.508585 1.594355 24.987764 1.938915 0.122203 8.170078 0.000000 0.000000 0.000000 -0.625537 -2.054628 -22.551026 39.931702 -48.029403 18.388439 41.394545 -11.741277 29.018016 0.000000 0.000000 0.000000 -7.125000 0.000000 0.000000 6.007698 -6.322673 6.667714 0.000000 0.000000 0.000000 -6.910963 0.202863 40.661996 -40.041135 -48.094119 -18.469825 -46.980097 1.209425 11.072824 0.000000 0.000000 0.000000 7.125000 0.000000 0.000000 -18.641537 45.126934 0.058019
17.986333 16.330434 0.108251 30.940227 -86.925642 -28.886789 0.000000 0.000000 0.000000 -10.633392 -3.355069 -11.330798 2.646254 10.099124 29.298157 1.850148 13.374987 -33.442275 1.989448 -8.844013 -25.308589 0.000000 0.000000 0.000000 9.322120 6.956560 -10.665295 -3.309863 -11.180594 32.891263 -1.649540 -12.978611 -31.935925 -0.225619 3.057699 -8.439495 -2.914030 -1.717265 -9.272171 0.632763 -1.990635 3.797650 1.969653 -1.167649 9.394217 -6.284151 1.569111 -3.439234 2.667687 1.504791 25.002582 2.040460 0.070408 8.214532 0.000000 0.000000 0.000000 -0.679132 -2.299763 -22.593858 39.787877 -47.943759 18.281599 41.466681 -11.799176 28.937014 0.000000 0.000000 0.000000 -7.125000 0.000000 0.000000 6.068318 -6.258390 6.729718 0.000000 0.000000 0.000000 -6.831964 -0.554688 36.813489 -38.885833 -47.395803 -17.614723 -38.166724 14.972353 16.444603 0.000000 0.000000 0.000000 7.125000 0.000000 0.000000 -10.457985 50.265450 1.370051
17.990173 16.330100 0.106500 30.440672 -86.902665 -28.407582 0.000000 0.000000 0.000000 -10.606444 -3.344945 -11.314266 2.640279 10.088632 29.264297 1.844333 13.366978 -33.402153 1.972522 -8.808494 -25.198158 0.000000 0.000000 0.000000 9.334200 6.878143 -10.712109 -3.317072 -11.191395 32.928259 -1.643866 -12.976509 -31.899804 -0.232814 3.105529 -8.572626 -2.885863 -1.713482 -9.206217 0.618506 -1.989951 3.767912 1.940787 -1.163920 9.320926 -6.342959 1.567021 -3.614375 2.654187 1.524840 25.117897 2.050849 0.071360 8.284919 0.000000 0.000000 0.000000 -0.643838 -2.262893 -22.646422 39.732489 -47.910583 18.240486 41.593949 -12.029328 29.102866 0.000000 0.000000 0.000000 -7.125000 0.000000 0.000000 6.096312 -6.496614 6.783427 0.000000 0.000000 0.000000 -6.790814 -0.514692 36.737663 -38.922225 -47.418210 -17.641481 -38.185770 15.390978 16.611086 0.000000 0.000000 0.000000 7.125000 0.000000 0.000000 -10.483941 50.469767 1.426858
